<?xml version="1.0" encoding="utf-8"?>
<!-- Generator: Adobe Illustrator 27.5.0, SVG Export Plug-In . SVG Version: 6.00 Build 0)  -->
<svg version="1.1" id="レイヤー_1" xmlns="http://www.w3.org/2000/svg" xmlns:xlink="http://www.w3.org/1999/xlink" x="0px"
	 y="0px" viewBox="0 0 471.9 89.9" style="enable-background:new 0 0 471.9 89.9;" xml:space="preserve">
<style type="text/css">
	.st0{clip-path:url(#SVGID_00000139996470003805585410000002435178288538082969_);}
	.st1{clip-path:url(#SVGID_00000134968546765901074140000016189346369751404731_);}
</style>
<g id="Logo_-_Black_00000159454125406260932040000010898011274852169368_">
	<g>
		<defs>
			<rect id="SVGID_1_" x="165.7" y="8" width="140.5" height="74"/>
		</defs>
		<clipPath id="SVGID_00000085951469722504426740000012652856057795259025_">
			<use xlink:href="#SVGID_1_"  style="overflow:visible;"/>
		</clipPath>
		<g style="clip-path:url(#SVGID_00000085951469722504426740000012652856057795259025_);">
			<defs>
				<rect id="SVGID_00000130622868333820182230000002243690926653663642_" x="165.7" y="8" width="140.5" height="74"/>
			</defs>
			<clipPath id="SVGID_00000044890193985649132050000011777480312501792392_">
				<use xlink:href="#SVGID_00000130622868333820182230000002243690926653663642_"  style="overflow:visible;"/>
			</clipPath>
			<path style="clip-path:url(#SVGID_00000044890193985649132050000011777480312501792392_);" d="M169.8,15.2c0-4.7,2.7-7.3,7.7-7.3
				c5,0,7.8,2.6,7.8,7.3c0,4.8-2.8,7.5-7.8,7.5C172.5,22.7,169.8,20.1,169.8,15.2 M165.7,71.2h5.5V28h12.3v40.3
				c0,8.2-5.5,13.7-13.7,13.7h-4V71.2z"/>
			<path style="clip-path:url(#SVGID_00000044890193985649132050000011777480312501792392_);" d="M215,48.2c0-7.2-2.3-9.9-8.1-9.9
				c-5.7,0-8.1,2.7-8.1,9.9c0,7,2.3,9.8,8.1,9.8C212.7,57.9,215,55.2,215,48.2 M227.2,48.2c0,12.7-8.7,20.9-20.3,20.9
				c-11.5,0-20.3-8.1-20.3-20.9c0-12.9,8.8-21,20.3-21C218.5,27.1,227.2,35.3,227.2,48.2"/>
			<path style="clip-path:url(#SVGID_00000044890193985649132050000011777480312501792392_);" d="M267,28l-15,43.5
				c-2.3,6.8-6.6,10.5-16.6,10.5h-6.9V71.2h11.2L225.2,28h13.4l5.6,22.4l1.7,7.8l1.8-7.8l6-22.4H267z"/>
			<path style="clip-path:url(#SVGID_00000044890193985649132050000011777480312501792392_);" d="M306.2,44.3v23.9h-12.3V45.4
				c0-4.9-1.6-7.2-5.7-7.2c-4.5,0-6.9,3.1-6.9,10.4v19.6h-12.3V28h12.3v8.6c1.9-6.4,5.7-9.4,12-9.4
				C302.3,27.1,306.2,32.7,306.2,44.3"/>
		</g>
	</g>
</g>
</svg>
